# xmcd
#
# Track frame offsets:
#	150
#	13387
#	28262
#	37017
#	48605
#	57967
#	74267
#	91040
#	108175
#	122847
#	136737
#	149262
#
# Disc length: 2181 seconds
#
# Revision: 1
# Processed by: cddbd v1.5.1PL0 Copyright (c) Steve Scherf et al.
# Submitted via: audiograbber 1.83.01
#
DISCID=aa08830c
DTITLE=Bullamakanka - From The Heart
DYEAR=1988
DGENRE=Country
TTITLE0=Miles From Nowhere
TTITLE1=On The Wallaby
TTITLE2=Nuts 'n' Raisins
TTITLE3=Mulga Fever
TTITLE4=Soldier Birds
TTITLE5=Wild Horses
TTITLE6=From The Heart
TTITLE7=Lady In My Mind
TTITLE8=Girl I Met On The Train
TTITLE9=Bullabounce
TTITLE10=Lose A Little Bit
TTITLE11=Ride These Roads
EXTD=
EXTT0=
EXTT1=
EXTT2=
EXTT3=
EXTT4=
EXTT5=
EXTT6=
EXTT7=
EXTT8=
EXTT9=
EXTT10=
EXTT11=
PLAYORDER=
